<?xml version="1.0" standalone="yes"?>
<svg xmlns="http://www.w3.org/2000/svg" width="529" height="375">
<path style="fill:#82854c; stroke:none;" d="M153 76C157.584 98.2192 171.379 117.376 185.449 135C191.778 142.927 199.028 150.402 204.445 158.996C209.282 166.67 209.923 174.783 213 183C217.298 179.604 218.636 174.318 223 171L222 168C223.635 168.545 223.455 168.365 224 170L226 170C229.444 167.344 233.145 167.926 234 163L238 163C235.838 162.081 233.427 162.084 231.285 161.077C227.193 159.155 223.742 155.597 220 153.09C202.544 141.391 188.02 124.417 175.003 108C167.958 99.1144 159.007 89.084 161 77C158.074 76.3552 155.971 75.4391 153 76M57 101C60.9508 109.471 70.6336 115.473 77.7145 121.293C93.6243 134.369 110.254 151.154 129 160C129.323 157.968 129.34 157.018 129 155C135.083 158.013 140.989 164.022 148 164C148.828 169.021 152.235 170.402 157 171L156 174C160.438 173.798 161.636 170.944 163 167C152.686 165.162 142.851 158.311 134 153C117.887 143.331 101.87 133.761 87 122.207C80.477 117.138 74.2692 111.797 68 106.424C64.4925 103.419 61.7699 100.326 57 101z"/>
<path style="fill:#ea7b6f; stroke:none;" d="M412 178L417 176C415.021 179.627 414.181 182.872 414 187L408 187C408.465 188.894 409.066 190.277 410 192L405 191C404.153 195.343 404.964 199.598 405 204L403 200C400.595 201.1 397.615 201.079 395.463 202.634C391.973 205.157 390.429 208.911 386 210C383.873 213.882 381.59 217.569 381 222L377 222C374.643 226.278 369.245 225.674 369 231C364.12 231.017 359.418 230.999 360 237C357.457 237.526 356.465 237.878 355 240L351 239C351 240.797 351.014 240.522 352 242C349.792 242.852 346.954 244.562 344.549 243.533C341.475 242.218 340.733 238.8 336.981 238.268C329.877 237.259 321.423 240.999 314 241C318.647 239.039 323.018 239.001 328 239C327.209 237.239 327.038 237.455 328 236C324.889 235.011 322.79 236.467 320 238C316.8 234.337 308.601 236 304 236C308.853 234.566 313.964 235 319 235C312.713 232.362 303.775 234.151 297 233.985C288.454 233.776 280.31 231.715 272 230C272 231.797 272.014 231.521 273 233C270.567 234.072 269.326 234.427 269 237C263.867 236.595 258.061 236.3 253.17 234.619C247.761 232.76 243.74 229.321 238 232C238.986 230.521 239 230.797 239 229C233.711 227.654 229.599 223.98 224 225C224 223.203 223.986 223.479 223 222L221 222L219 227L218 223C213.805 225.412 213.059 229.427 213 234C216.912 235.518 224.17 237.32 226 241C228.645 240.573 229.461 240.179 231 238C231.986 239.479 232 239.203 232 241C234.165 239.599 234.906 238.357 236 236C235.887 243.226 235.3 246.742 244 247L243 249C249.86 249.142 256.242 251.411 263 252C260.097 252.737 257.951 252.529 255 252C255.818 255.817 260.448 255.563 264 255.917C273.595 256.872 281.751 257.241 291 260L290 263C301.621 263 311.84 262.817 323 266L322 264C327.7 265.91 333.134 269.725 337 263L333 264C330.452 260.073 324.863 260.46 322 264C315.302 261.503 308.813 261.622 302 260L302 258C308.03 256.43 314.229 258.634 319.946 257.248C322.519 256.624 324.019 254.451 326.259 253.25C329.016 251.772 331.978 251.882 335 252L335 248C339.052 252.592 339.602 260.877 346 263C344.958 259.932 344.091 257.248 344 254C345.943 254.402 346.057 254.402 348 254C349.639 257.859 356.491 261.405 357.574 254.867C358.182 251.197 355.031 247.674 353 245C356.222 246.8 357.468 248.67 359 252C360.903 251.925 363.15 252.58 364.998 252.206C372.39 250.708 377.516 242.878 382.764 238.305C391.593 230.612 398.364 221.416 405.294 212.039C407.6 208.919 410.886 206.249 412.725 202.826C414.339 199.823 414.442 196.209 415.523 193.004C417.088 188.365 419.695 183.517 421.957 179.17C425.288 172.768 430.889 167.818 435.062 162.001C436.546 159.934 437.816 156.428 440.272 155.323C442.634 154.26 444.988 155.941 447 157C444.524 150.055 438.737 149.529 433 153.554C428.728 156.551 426.193 160.401 422.782 164.171C418.78 168.593 414.459 172.482 412 178z"/>
<path style="fill:#ec2332; stroke:none;" d="M442 150C443.85 152.305 445.61 154.388 447 157C444.997 155.576 442.928 153.806 440.272 154.799C437.788 155.729 436.511 159.003 435.062 161.004C431.015 166.595 425.921 171.418 422.443 177.424C419.895 181.824 417.167 187.204 415.523 192.015C414.418 195.248 414.308 198.854 412.725 201.91C410.424 206.354 406.077 209.891 403.191 214.004C396.411 223.663 388.686 231.464 380.431 239.711C375.967 244.17 371.999 249.077 365.789 251.401C363.703 252.182 361.192 251.558 359 252C357.8 248.262 356.755 246.375 353 245C354.437 247.594 357.275 250.857 357.263 253.945C357.236 260.858 350.056 257.269 348 254L344 254C343.597 257.544 344.432 259.818 346 263C339.943 259.728 340.088 251.817 335 248L335 252C327.84 250.998 326.007 255.138 319.946 256.787C314.106 258.376 308.101 255.765 302 258L302 260C308.425 261.899 315.394 262.234 322 264C325.683 260.986 329.564 260.532 333 264L337 263C332.055 268.221 328.101 265.458 322 264L323 266C312.472 261.711 301.222 263 290 263C290.986 261.521 291 261.797 291 260C283.373 256.441 275.29 256.327 267 255.961C262.745 255.773 257.432 255.755 255 252C257.709 252.648 260.216 252.942 263 253C257.108 249.798 249.625 249.055 243 249L244 247C235.984 246.462 235.612 242.874 237 236C234.491 238.065 233.83 240.649 231 238C229.243 239.733 228.358 240.341 226 241C224.848 237.075 216.93 234.886 213 234C213.249 229.397 214.635 226.171 218 223L218 227C219.513 225.347 220.181 224.106 221 222L223 222L224 225C229.548 224.635 233.639 228.15 239 229L238 232C239.314 231.232 239.232 231.314 240 230C250.008 232.896 258.351 236.543 269 237C269 234.417 270.819 234.32 273 233L272 230C292.522 235.781 317.309 236.353 338 231C334.668 228.965 330.855 228.73 327.285 227.239C319.236 223.877 311.482 220.064 304 215.55C292.216 208.441 279.498 199.568 269.129 190.586C265.201 187.183 262.47 182.948 258.285 179.66C250.46 173.51 241.351 160.802 231 168C233.694 175.768 226.417 180.428 226 188C221.475 186.608 218.468 186.399 216 182L214 182C212.092 186.521 211.869 190.236 213 195C204.584 191.249 199.141 182.172 190 180C189.413 172.211 179.332 163.853 171.471 169.028C169.185 170.533 168.084 173.627 167 176C169.283 177.446 169.582 178.311 170 181C162.994 181.554 162.629 189.411 160 195L163 194C161.963 196.513 161.317 197.617 159 199L160 196L155 198L154 210L156 210C157.726 204.371 163.134 200.995 165 195C166.961 195.497 168.319 195.927 170 197L172 197C174.698 193.24 177.772 190.862 182 189C184.098 193.37 185.383 197.147 186 202L192 201C190.643 206.065 188.503 210.418 186 215C184.977 213.466 185.195 213.598 184 213L180 215C179.996 221.418 178.504 227.697 180 234C174.641 233.319 169.035 232.574 164 230.525C152.5 225.844 143.848 219.001 131 219C131.283 223.269 133.212 226.852 134 231C121.567 232.993 121.084 245.222 119.752 254.961C119.191 259.057 116.827 260.639 118 265L114 266C120.298 278.891 138.407 275.934 150 279.014C159.904 281.645 169.77 286.355 180 287.522C193.832 289.099 208.165 288.346 221.996 290.188C227.284 290.893 231.753 294.49 237 295.444C246.149 297.109 255.735 296.829 265 298C262.582 298.722 260.528 298.948 258 299C266.66 302.896 275.86 301.299 285 302.17C292.743 302.907 301.424 302.928 308.985 304.478C314.478 305.604 319.331 308.237 325 309C323.931 304.439 321.068 296.797 317.581 293.549C306.325 283.066 286.962 284.572 273 282.871C269.883 282.491 267.099 280.991 264 280.532C255.356 279.25 246.55 278.707 238 276.884C231.463 275.49 223.448 275.193 218 271L214 272C213.89 269.558 213.572 267.377 213 265C212.315 266.248 212.251 266.548 212 268C211.014 266.521 211 266.797 211 265C208.877 265.307 208.314 265.382 207 267C206.01 263.65 206.002 260.486 206 257C203.854 257.504 202.021 258.119 200 259C200.326 255.951 200.178 253.056 200 250C204.771 250 210.176 249.299 214.83 250.459C219.031 251.506 222.767 254.327 227.09 254.87C232.006 255.488 237.088 254.403 241.985 255.224C247.448 256.139 252.286 258.286 258 258.83C263.045 259.31 267.997 258.863 273 259.963C277.705 260.997 281.491 264.066 286.09 265.295C293.152 267.181 302.656 267.684 310 268L310 273C315.284 273.242 322.644 274.692 326.736 278.275C331.483 282.43 334.332 288.435 339.455 292.459C342.215 294.627 345.91 295.48 348.91 297.301C351.402 298.813 353.209 301.091 355.611 302.701C361.447 306.613 368.398 309.036 369 317L373 317C374.228 321.342 383.646 322.957 388 324L387 328C391.91 329.224 395.015 332.888 399.034 335.775C400.505 336.832 403.005 338.039 403.369 340.037C404.24 344.814 395.679 342.272 394 341C389.465 341.027 385.319 338.908 383 335C379.103 334.51 375.87 334.111 372 335L372 337C376.049 339.832 381.61 344.173 386.17 345.772C390.302 347.22 394.808 346.548 399 347.609C405.348 349.215 410.333 350.996 417 351C416.067 348.672 416.593 346.285 415.731 343.996C414.444 340.576 411.049 338.072 409.108 335C404.017 326.94 401.277 317.329 392 313L396 318C386.558 312.12 380.018 301.665 370 297L372 293C366.449 289.025 359.628 285.991 355 281L362 279C362.761 275.749 364.915 275.694 368 276C369.48 271.368 376.179 268.885 380.015 266.161C386.015 261.899 391.817 255.661 396.546 250.025C403.943 241.206 413.017 231.65 418.811 221.714C420.58 218.68 420.813 215.168 422.221 212C424.141 207.679 427.16 203.876 429.11 199.576C431.53 194.237 433.171 188.466 435.654 183.09C438.568 176.781 440.717 169.184 444.086 163.259C445.808 160.23 450.136 157.15 449.173 153.148C448.405 149.954 444.56 150.083 442 150z"/>
<path style="fill:#ea7b6f; stroke:none;" d="M450 153C448.282 156.762 445.44 159.652 443.633 163.259C442.105 166.31 441.613 169.858 440.218 172.999C434.645 185.558 428.794 197.756 422.708 210C420.98 213.475 420.731 217.44 418.811 220.83C416.842 224.307 413.621 226.884 411.323 230.13C399.044 247.48 385.201 262.791 367 274C370.419 274.559 373.151 272.505 376 270.655C382.771 266.26 388.522 257.847 396.039 255.119C402.044 252.939 408.085 253.964 414 252.272C417.841 251.172 421.247 249.006 424.961 247.594C435.612 243.544 446.412 239.951 457 235.715C466.999 231.714 477.472 226.714 486.946 221.561C492.444 218.57 495.878 215.878 502 214C494.366 211.652 484.535 216.441 477 218C479.052 218.874 480.747 218.953 483 219C478.669 221.347 473.659 222.036 469 223.692C455.381 228.534 441.547 232.736 428 237.544C421.424 239.878 416.732 239.427 411 244C410.422 241.303 409.739 241.211 407 241C411.263 235.869 417.87 236.797 424 235.424C436.453 232.633 448.823 228.894 461 225C456.414 223.229 451.594 226.415 447 227.396C434.937 229.971 422.924 232.915 411 236C416.041 227.237 423.176 219.893 428.138 211C434.225 200.091 437.336 188.505 441.869 177.001C444.409 170.553 452.275 159.928 450 153z"/>
<path style="fill:#ec2332; stroke:none;" d="M385 206C380.484 205.895 377.501 208.942 374 211.65C368.003 216.289 362.214 221.207 356 225.562C347.636 231.423 338.051 236.274 328 238.334C323.387 239.28 318.648 239.137 314 240C319.774 242.423 326.177 240.124 332 238.892C335.535 238.144 339.581 239.94 342.816 238.803C350.326 236.165 356.033 229.51 362.04 224.595C365.657 221.635 370.152 220.514 373.715 217.553C385.935 207.4 395.98 196.042 406.205 184C412.681 176.373 420.255 169.155 426 161C414.047 166.574 406.728 181.376 397.701 190.576C393.224 195.138 386.798 199.71 385 206z"/>
<path style="fill:#ea7b6f; stroke:none;" d="M234 163L234 165C241.46 165.388 244.825 169.67 250.285 174.128C254.419 177.503 259.092 180.397 262.875 184.184C266.418 187.733 268.043 191.296 273 193C267.639 185.359 260.933 179.83 254.09 173.675C247.161 167.443 243.88 163.083 234 163M172 167C174.613 168.098 177.165 167.993 180 168C177.387 166.902 174.835 167.007 172 167M152 184C154.999 181.983 157.5 179.971 161 179C159.568 183.532 160.035 187.4 161 192L163 192C164.207 186.719 163.699 182.023 170 181C169.936 178.007 170.054 176.654 167 176C168.644 173.396 169.935 170.889 171 168C162.6 171.112 155.855 175.584 152 184M226 188C226.642 182.244 232.557 177.873 232.448 172.189C232.387 169.066 229.108 167.697 226.499 168.872C221.619 171.069 210.393 182.222 219.213 186.411C221.205 187.358 223.858 187.482 226 188M183 169L184 170L183 169M414 171L410 176C412.089 174.444 413.403 173.512 414 171M227 173C226.217 179.187 225.644 185.896 218 182C220.148 178.033 222.577 174.357 227 173M189 174L190 180L192 180C191.579 177.157 191.061 175.988 189 174M407 179L408 180L407 179M194 181L195 182L194 181M197 183C198.103 184.457 198.543 184.897 200 186C198.897 184.543 198.457 184.103 197 183M212 183L212 186C212.696 184.446 212.696 184.554 212 183z"/>
<path style="fill:#ec2332; stroke:none;" d="M159 186C158.119 188.021 157.504 189.854 157 192C159.181 190.104 160.069 188.741 161 186L159 186z"/>
<path style="fill:#ea7b6f; stroke:none;" d="M211 187C211.052 189.528 211.278 191.582 212 194L208 192C209.717 193.84 210.566 194.349 213 195C212.482 192.256 212.139 189.535 211 187M157 188C155.817 190.328 154.777 192.511 154 195C151.986 193.454 151.035 192.314 150 190C141.951 202.195 151.81 211.64 160.989 218.899C164.597 221.752 170.613 227.129 170 232C173.121 233.401 176.589 233.73 180 234C178.843 227.672 179.999 221.408 180 215C182.265 214.622 183.813 214.296 186 215C189.174 210.722 191.106 206.257 192 201L186 202C185.612 197.089 184.78 193.111 182 189C177.393 190.372 174.111 192.612 172 197L170 197L170 195L165 195C162.598 200.274 156.934 204.471 156 210L154 210C154.118 205.897 155.473 202.074 155 198L160 196C159.014 197.479 159 197.203 159 199C161.885 198.161 162.289 196.885 163 194C160.122 194.345 157.679 194.88 155 196C156.273 193.267 157.594 190.983 157 188M204 189C204.545 190.635 204.365 190.455 206 191C205.455 189.365 205.635 189.545 204 189M397 189L391 197C394.227 194.746 397.035 192.431 399 189L397 189z"/>
<path style="fill:#82854c; stroke:none;" d="M147 191L148 192L147 191z"/>
<path style="fill:#ea7b6f; stroke:none;" d="M275 194C276.103 195.457 276.543 195.897 278 197C276.897 195.543 276.457 195.103 275 194M395 196C394.014 197.479 394 197.203 394 199C395.289 197.557 395.401 197.766 395 196M175 198L174 203C175.745 202.11 177.125 201.547 179 201C179.528 203.887 179.306 205.375 178 208C175.195 207.629 173.624 207.365 172 205C170.521 205.986 170.797 206 169 206C169.864 201.665 170.381 199.007 175 198M384 206C386.179 203.368 388.299 201.112 391 199C386.947 198.866 383.936 202.077 384 206M281 199C281.545 200.635 281.365 200.455 283 201C282.455 199.365 282.635 199.545 281 199M285 202C285.545 203.635 285.365 203.455 287 204C286.455 202.365 286.635 202.545 285 202z"/>
<path style="fill:#ec2332; stroke:none;" d="M164 204C162.209 208.015 155.361 213.833 162 216C164.81 211.861 165.954 209.05 166 204L164 204z"/>
<path style="fill:#ea7b6f; stroke:none;" d="M289 205C289.545 206.635 289.365 206.455 291 207C290.455 205.365 290.635 205.545 289 205M381 205C378.452 207.241 376.057 209.307 374 212C376.905 210.178 380.12 208.408 381 205z"/>
<path style="fill:#ec2332; stroke:none;" d="M187.333 206.667C187.278 206.722 187.222 207.778 187.667 207.333C187.722 207.278 187.778 206.222 187.333 206.667z"/>
<path style="fill:#ea7b6f; stroke:none;" d="M293 208C293.545 209.635 293.365 209.455 295 210C294.455 208.365 294.635 208.545 293 208M383.667 208.333C383.222 208.778 384.278 208.722 384.333 208.667C384.778 208.222 383.722 208.278 383.667 208.333M296 210C296.545 211.635 296.365 211.455 298 212C297.455 210.365 297.635 210.545 296 210M202 211L199 216C195.81 213.772 192.755 214.274 189 214C188.499 216.686 188.117 219.27 188 222L192 219C191.105 221.042 190.464 222.828 190 225C195.316 225.777 199.547 229.194 205 230C207.108 225.13 209.409 220.039 211 215C207.501 215.889 204.193 216.292 201 218C202.183 215.672 203.223 213.489 204 211L202 211z"/>
<path style="fill:#ec2332; stroke:none;" d="M169 212C168.352 214.709 168.058 217.216 168 220C169.607 218.996 170.035 218.803 172 219C172.572 216.623 172.89 214.442 173 212C171.805 212.598 172.023 212.466 171 214C170.232 212.686 170.314 212.768 169 212z"/>
<path style="fill:#ea7b6f; stroke:none;" d="M299 212C299.545 213.635 299.365 213.455 301 214C300.455 212.365 300.635 212.545 299 212z"/>
<path style="fill:#ec2332; stroke:none;" d="M414 252C418.795 253.739 424.07 251.807 429 251.494C431.605 251.328 434.333 252.259 436.852 251.248C438.965 250.399 439.38 248.962 440 247C448.554 246.143 455.155 242.327 464 243C465.672 239.67 467.64 238.527 471 237L473 241C470.08 242.333 467.663 244.203 465 246L465 248C466.478 248.986 466.203 249 468 249C466.225 251.442 465.432 253.023 465 256C458.763 257.081 456.834 260.981 451.815 264.015C445.064 268.097 436.192 269.904 431 276C437.641 274.662 445.022 270.545 451 267.309C467.034 258.628 479.781 248.829 492.715 236.095C498.459 230.439 506.628 227.451 509 219L512 219L513 223C514.243 219.953 513.591 217.193 513 214C510.426 213.426 507.733 211.99 505.05 212.198C495.307 212.95 485.665 221.635 477 225.745C456.347 235.541 435.005 243.044 414 252z"/>
<path style="fill:#ea7b6f; stroke:none;" d="M509 212L510 213L509 212M371 213C369.814 214.186 369.472 214.584 369 216C370.548 214.738 370.808 214.806 371 213z"/>
<path style="fill:#881627; stroke:none;" d="M509.667 213.333C509.222 213.778 510.278 213.722 510.333 213.667C510.778 213.222 509.722 213.278 509.667 213.333z"/>
<path style="fill:#ea7b6f; stroke:none;" d="M511 213L512 214L511 213M302 214C302.545 215.635 302.365 215.455 304 216C303.455 214.365 303.635 214.545 302 214M375 217C376.457 215.897 376.897 215.457 378 214C375.876 214.899 375.899 214.876 375 217M513.333 215.667C513.278 215.722 513.222 216.778 513.667 216.333C513.722 216.278 513.778 215.222 513.333 215.667M305 216L306 217L305 216M307 217L308 218L307 217M120 222C121.206 224.013 121.753 224.824 121 227L121 229C123.443 232.354 122.17 236.019 122 240C126.249 236.518 128.393 232.476 134 231C133.547 226.8 131.543 223.172 131 219L138 219C131.567 216.301 125.912 219.64 120 222M309 218C309.545 219.635 309.365 219.455 311 220C310.455 218.365 310.635 218.545 309 218M365 218L364 220C365.263 219.029 365.392 219.306 365 218M372.667 218.333C372.222 218.778 373.278 218.722 373.333 218.667C373.778 218.222 372.722 218.278 372.667 218.333M514 218L514 223C514.83 220.97 514.83 220.03 514 218M211 219C209.602 221.051 208.749 222.646 208 225C210.511 223.421 211.698 221.97 211 219z"/>
<path style="fill:#ec2332; stroke:none;" d="M407 241C409.297 241.674 409.774 241.965 411 244C420.707 238.729 431.284 236.562 442 233.381C455.743 229.302 469.363 224.321 483 220C476.871 217.429 471.833 221.518 466 223.116C452.251 226.882 438.853 231.702 425 234.985C418.978 236.413 410.301 234.995 407 241z"/>
<path style="fill:#881627; stroke:none;" d="M509 219C510.139 220.015 510.612 220.309 512 221C511.02 219.217 511.092 219.406 509 219z"/>
<path style="fill:#ea7b6f; stroke:none;" d="M143 220L144 221L143 220z"/>
<path style="fill:#ec2332; stroke:none;" d="M176 220L171 224C171.799 227.076 172.662 228.853 175 231C175.545 227.29 177.279 223.606 176 220z"/>
<path style="fill:#ea7b6f; stroke:none;" d="M312 220L313 221L312 220M363 224L368 224C368.986 222.521 369 222.797 369 221L368 220C365.643 221.104 364.624 221.956 363 224M463 223C466.699 223.844 470.439 222.139 474 221C470.27 219.867 466.492 221.497 463 223M145 221L146 222L145 221M314 221L315 222L314 221M361 221L360 223C361.263 222.029 361.392 222.306 361 221M316 222L317 223L316 222M512 222L513 223L512 222z"/>
<path style="fill:#82854c; stroke:none;" d="M62 284C61.7924 282.339 61.5046 282.46 63 282C63.2751 279.21 63.6095 278.445 66 277L65 280C65.8618 281.014 66.0648 282.893 65 281C63.015 283.911 68.394 287.433 64 288C66.3934 288.741 68.4926 288.302 71 288C70.1694 284.79 68.4137 278.965 65.5702 277.027C63.4962 275.614 60.3726 275.841 58 275.24C48.1339 272.743 29.0493 274.015 24.7577 261.996C21.4937 252.855 34.4754 243.728 41 240.042C57.2361 230.871 77.416 232.309 92 244.171C98.4021 249.377 103.041 257.911 110 262C109.559 257.156 110.602 251.658 112 247C109.709 245.49 107.482 244.163 105 243C108.619 238.655 113.587 238.138 119 239L120 235C118.584 235.472 118.186 235.814 117 237C116.122 234.983 115.348 233.768 114 232L116 232C115.528 230.584 115.186 230.186 114 229L120 230C121.182 227.57 121.73 225.687 122 223C116.504 223.159 111.486 225.876 106 225.741C82.3591 225.157 57.3423 219.359 36 232.877C31.9976 235.411 28.3471 238.486 25.1736 242.004C23.0003 244.413 20.8669 247.069 19.4383 250C7.69081 274.106 44.7554 284.586 62 284z"/>
<path style="fill:#ea7b6f; stroke:none;" d="M149 223L150 224L149 223M318 223L319 224L318 223M151 224L152 225L151 224M320.667 224.333C320.222 224.778 321.278 224.722 321.333 224.667C321.778 224.222 320.722 224.278 320.667 224.333M357 224L356 226C357.263 225.029 357.392 225.306 357 224z"/>
<path style="fill:#ec2332; stroke:none;" d="M122.333 225.667C122.278 225.722 122.222 226.778 122.667 226.333C122.722 226.278 122.778 225.222 122.333 225.667z"/>
<path style="fill:#ea7b6f; stroke:none;" d="M186 225C184.15 228.041 183.235 230.445 183 234C184.839 231.262 186.552 228.3 186 225M358 228C359.949 227.064 360.55 226.608 362 225C360.052 225.936 359.45 226.392 358 228M156 226L157 227L156 226M326 226C326.98 227.783 326.908 227.594 329 228C327.861 226.985 327.388 226.691 326 226M353 227L354 228L353 227z"/>
<path style="fill:#82854c; stroke:none;" d="M53 228.333L53.3333 228.667C52.8398 228.831 52.2266 228.333 53 228.333M69 228.333L69.3333 228.667C68.8398 228.831 68.2266 228.333 69 228.333z"/>
<path style="fill:#ea7b6f; stroke:none;" d="M159 228L160 229L159 228M331.667 228.333C331.222 228.778 332.278 228.722 332.333 228.667C332.778 228.222 331.722 228.278 331.667 228.333M350.667 228.333C350.222 228.778 351.278 228.722 351.333 228.667C351.778 228.222 350.722 228.278 350.667 228.333z"/>
<path style="fill:#82854c; stroke:none;" d="M47 229.333C47.7734 229.333 47.1602 229.831 46.6667 229.667L47 229.333z"/>
<path style="fill:#ea7b6f; stroke:none;" d="M161 229L162 230L161 229M335 229L336 230L335 229M356 229L356 231C357.635 230.455 357.455 230.635 358 229L356 229M163 230L164 231L163 230M166.667 231.333C166.222 231.778 167.278 231.722 167.333 231.667C167.778 231.222 166.722 231.278 166.667 231.333M336.667 231.333C336.222 231.778 337.278 231.722 337.333 231.667C337.778 231.222 336.722 231.278 336.667 231.333M331 232C332.248 232.685 332.548 232.749 334 233C332.752 232.315 332.452 232.251 331 232M325 233C326.248 233.685 326.548 233.749 328 234C326.752 233.315 326.452 233.251 325 233M339 234C340.659 234.406 341.242 234.309 343 234C341.341 233.594 340.758 233.691 339 234M488 241C491.947 239.159 494.497 236.542 497 233C493.061 234.427 490.232 237.493 488 241M345 238C347.175 237.415 348.244 236.427 350 235C347.284 234.279 346.236 235.629 345 238z"/>
<path style="fill:#82854c; stroke:none;" d="M93.6667 235.667C93.7222 235.722 93.7778 236.778 93.3333 236.333C93.2778 236.278 93.2222 235.222 93.6667 235.667z"/>
<path style="fill:#881627; stroke:none;" d="M119.333 236.667C119.278 236.722 119.222 237.778 119.667 237.333C119.722 237.278 119.778 236.222 119.333 236.667z"/>
<path style="fill:#ea7b6f; stroke:none;" d="M120.333 236.667C120.278 236.722 120.222 237.778 120.667 237.333C120.722 237.278 120.778 236.222 120.333 236.667M334.667 236.333C334.222 236.778 335.278 236.722 335.333 236.667C335.778 236.222 334.722 236.278 334.667 236.333M329 237C330.248 237.685 330.549 237.749 332 238C330.752 237.315 330.452 237.251 329 237z"/>
<path style="fill:#881627; stroke:none;" d="M464 243C454.991 241.867 448.649 245.512 440 247C436.235 254.169 423.251 251.425 416 252.818C410.621 253.851 405.267 254.787 399.91 255.741C397.414 256.185 394.786 255.757 392.424 256.858C388 258.92 384.788 263.499 381 266.482C373.31 272.539 364.27 277.843 355 281C359.458 287.865 373.538 286.68 381 287C380.35 285.7 380.853 286 379 286C394.018 281.559 411.127 283.943 426 278.285C430.081 276.733 433.195 273.757 437 271.718C442.106 268.982 447.755 267.165 452.671 264.015C457.271 261.069 459.399 257.552 465 256C465.659 253.391 466.687 251.36 468 249L465 248L465 246C467.92 244.667 470.337 242.797 473 241L471 237C467.252 238.188 465.17 239.132 464 243z"/>
<path style="fill:#ea7b6f; stroke:none;" d="M117.667 239.333C117.222 239.778 118.278 239.722 118.333 239.667C118.778 239.222 117.722 239.278 117.667 239.333M120 242C118.536 245.281 116.702 247.631 114 250L114 246C104.069 254.472 111.055 270.779 122 274C119.254 271.316 116.28 269.129 114 266L118 265C117.328 260.971 119.378 259.6 120.117 255.91C120.793 252.532 121.099 245.159 120 242M154 242C153.284 244.168 152.706 245.031 155 245L154 249C155.884 247.02 156.469 245.69 157 243L154 242M339 243L340 247C333.944 247.05 327.459 247.276 322 250L322 248C315.876 251.285 310.309 250.262 304 248C303.518 250.364 303.364 250.518 301 251L301 245C307.75 245 314.8 246.195 321.424 245.992C324.64 245.893 326.982 243.614 329.999 242.896C332.87 242.212 336.052 243.185 339 243M486 242C484.814 243.186 484.472 243.584 484 245C485.548 243.738 485.808 243.806 486 242z"/>
<path style="fill:#82854c; stroke:none;" d="M106 246L109 247C107.191 247.574 106.931 247.465 105 247L106 246z"/>
<path style="fill:#ea7b6f; stroke:none;" d="M482 246L483 247L482 246M193 248C192.438 251.025 192.064 253.922 192 257L194 257C194.19 254.029 194.834 251.74 196 249C194.521 248.014 194.797 248 193 248M200 250L200 259L206 257L206 267C208.525 265.779 209.418 265.648 211 268C211.685 266.752 211.749 266.451 212 265C213.182 267.43 213.73 269.313 214 272L218 271C219.83 273.128 222.215 273.186 224.831 274.169C231.894 276.824 239.582 277.097 247 278.324C255.277 279.693 263.724 281.875 272 282.871C286.491 284.614 304.733 283.376 316.775 293.549C321.265 297.342 324.313 306.471 326 312C316.855 309.297 306.427 311.17 297 309.181C276.133 304.779 255.11 300.134 234 297.29C229.029 296.62 223.96 297.48 219 296.791C212.626 295.905 206.501 294.279 200 294C201.801 293.438 203.122 293.176 205 293C196.781 289.018 186.003 288.144 177 287C179.5 288.529 182.179 289.197 185 290C184.014 291.479 184 291.203 184 293C190.943 293.062 197.185 295.717 204 296.7C220.452 299.072 236.643 300.977 253 303.715C267.727 306.179 282.334 309.169 297 311.745C309.553 313.949 321.897 315.434 334 319.799C356.545 327.932 376.426 352.229 402 349C397.603 345.996 392.04 347.457 387.09 345.772C382.032 344.05 376.942 339.513 372 337L372 335C375.798 334.373 379.191 334.71 383 335C384.632 339.569 389.404 341.265 394 341C395.71 342.957 404.838 344.672 404.079 340.037C403.696 337.703 400.733 336.344 399.035 335.115C395.007 332.201 392.094 328.724 387 328L388 324C383.716 322.535 374.501 321.084 373 317L369 317C368.714 308.243 361.608 306.665 355.611 302.116C350.595 298.31 344.099 295.778 339.455 291.791C334.67 287.682 331.542 281.302 326.736 277.573C322.448 274.247 315.265 273.112 310 273L310 268C302.808 267.428 293.971 267.099 287.039 265.295C281.738 263.915 277.533 260.531 272 259.594C265.092 258.425 257.997 258.964 251.039 257.882C247.845 257.385 245.225 255.456 241.985 255.108C237.075 254.58 231.958 255.655 227.09 254.737C223.124 253.989 219.626 251.46 215.715 250.459C210.818 249.207 205.028 250 200 250M477 250L478 251L477 250z"/>
<path style="fill:#ec2332; stroke:none;" d="M393 255C398.506 257.311 407.203 254.927 413 254C406.103 251.026 399.951 254.393 393 255z"/>
<path style="fill:#ea7b6f; stroke:none;" d="M473 253L472 255C473.263 254.029 473.392 254.306 473 253z"/>
<path style="fill:#ec2332; stroke:none;" d="M112 256C110.814 257.186 110.472 257.584 110 259C112.251 258.527 113.118 258.14 112 256M286 256C289.602 258.266 293.806 259.381 298 260C297.088 255.744 289.898 256.197 286 256z"/>
<path style="fill:#ea7b6f; stroke:none;" d="M467 257L468 258L467 257M461 261L462 262L461 261M459 262L460 263L459 262M263 266C271.588 261.571 277.946 266.723 286.09 269.316C290.237 270.637 294.756 269.704 298.996 270.75C303.095 271.761 305.585 274.067 309.184 275.955C311.928 277.394 315.073 277.865 317.91 279.09C323.695 281.588 331.481 285.258 332 292C340.636 293.366 346.521 300.902 354.001 304.971C358.176 307.242 362.843 308.535 364.907 313.29C366.219 316.311 365.06 319.829 365 323C355.391 315.846 344.697 310.453 335.075 303.316C327.729 297.868 321.475 289.366 312.999 285.684C305.789 282.553 295.719 279.922 288 278.379C282.775 277.334 278.136 277.834 273 276L273 272C269.59 271.737 268.099 271.321 267 268C261.585 268.041 258.281 268.639 254 265C254.986 266.479 255 266.203 255 268C252.177 267.066 251.189 265.707 250 263C253.83 263 262.102 261.894 263 266M454 265L455 266L454 265M452 266L453 267L452 266M450 267L451 268L450 267M448 268L447 270C448.263 269.029 448.392 269.306 448 268M445 270L446 271L445 270z"/>
<path style="fill:#881627; stroke:none;" d="M436 273C438.462 273.697 439.665 273.11 442 272C439.726 271.591 438.219 272.212 436 273z"/>
<path style="fill:#ea7b6f; stroke:none;" d="M443 271L444 272L443 271z"/>
<path style="fill:#82854c; stroke:none;" d="M41 274C38.1114 275.731 35.3387 275.929 32 276C34.8855 274.465 37.7481 274.142 41 274z"/>
<path style="fill:#ea7b6f; stroke:none;" d="M436 274L437 275L436 274M126.667 275.333C126.222 275.778 127.278 275.722 127.333 275.667C127.778 275.222 126.722 275.278 126.667 275.333M361 277C363.462 277.697 364.665 277.11 367 276C364.538 275.303 363.335 275.89 361 277M434 275L435 276L434 275M130 276C133.835 278.62 138.495 278 143 278C139.084 276.357 134.233 276.786 130 276M428 277C429.847 277.468 431.069 277.301 433 277C431.057 276.378 430.051 276.564 428 277z"/>
<path style="fill:#881627; stroke:none;" d="M63 277L62 281C63.9506 279.74 64.8397 278.981 66 277L63 277z"/>
<path style="fill:#ea7b6f; stroke:none;" d="M147.667 278.333C147.222 278.778 148.278 278.722 148.333 278.667C148.778 278.222 147.722 278.278 147.667 278.333M425 278L426 279L425 278M64 279L63 283C64.1954 282.402 63.9774 282.534 65 281C65.6898 282.537 65.3279 282.338 67 282C66.0985 280.077 65.9239 280.001 64 279M154.667 280.333C154.222 280.778 155.278 280.722 155.333 280.667C155.778 280.222 154.722 280.278 154.667 280.333z"/>
<path style="fill:#82854c; stroke:none;" d="M415 280C416.248 280.685 416.548 280.749 418 281C416.752 280.315 416.452 280.251 415 280z"/>
<path style="fill:#ea7b6f; stroke:none;" d="M158.667 281.333C158.222 281.778 159.278 281.722 159.333 281.667C159.778 281.222 158.722 281.278 158.667 281.333M411 281C412.248 281.685 412.548 281.749 414 282C412.752 281.315 412.452 281.251 411 281z"/>
<path style="fill:#881627; stroke:none;" d="M61 282C61 284.907 58.5496 284 56 284C59.2832 286.482 62.921 287.591 67 288C65.41 285.009 64.0427 283.487 61 282z"/>
<path style="fill:#ea7b6f; stroke:none;" d="M161 282L162 283L161 282z"/>
<path style="fill:#82854c; stroke:none;" d="M403 282C404.248 282.685 404.548 282.749 406 283C404.752 282.315 404.452 282.251 403 282z"/>
<path style="fill:#ea7b6f; stroke:none;" d="M164 283L165 284L164 283z"/>
<path style="fill:#82854c; stroke:none;" d="M397 283C398.248 283.685 398.548 283.749 400 284C398.752 283.315 398.452 283.251 397 283z"/>
<path style="fill:#ea7b6f; stroke:none;" d="M389 284C390.248 284.685 390.548 284.749 392 285C390.752 284.315 390.452 284.251 389 284M170.667 285.333C170.222 285.778 171.278 285.722 171.333 285.667C171.778 285.222 170.722 285.278 170.667 285.333M360 285C361.139 286.015 361.612 286.309 363 287C362.02 285.217 362.092 285.406 360 285z"/>
<path style="fill:#82854c; stroke:none;" d="M379 285C379.65 286.3 379.147 286 381 286C379.521 286.986 379.797 287 378 287C381.697 288.552 386.017 288 390 288L390 286C386.265 285.969 382.695 285.467 379 285z"/>
<path style="fill:#ea7b6f; stroke:none;" d="M382 285C383.506 285.683 384.315 285.826 386 286C384.494 285.317 383.685 285.174 382 285z"/>
<path style="fill:#82854c; stroke:none;" d="M60 286L61 287L60 286z"/>
<path style="fill:#ea7b6f; stroke:none;" d="M173.667 286.333C173.222 286.778 174.278 286.722 174.333 286.667C174.778 286.222 173.722 286.278 173.667 286.333M365 286C367.052 286.874 368.747 286.953 371 287C368.948 286.126 367.253 286.047 365 286z"/>
<path style="fill:#82854c; stroke:none;" d="M371 286C372.769 286.779 374.036 286.912 376 287C374.231 286.221 372.964 286.088 371 286z"/>
<path style="fill:#ea7b6f; stroke:none;" d="M390 286L390 288L396 288L396 286L390 286z"/>
<path style="fill:#881627; stroke:none;" d="M184 287C192.785 291.222 203.646 290.62 213 293.054C231.415 297.846 250.114 300.523 269 303.209C276.339 304.253 283.583 306.51 291 307.572C294.985 308.142 299.026 307.769 302.996 308.443C306.11 308.971 308.967 310.494 312.09 310.871C316.8 311.441 321.321 310.886 326 312C323.377 307.708 314.862 305.503 309.961 304.478C297.809 301.937 284.369 302.561 272 301.96C267.24 301.728 262.803 300.102 258 300C260.418 299.278 262.472 299.052 265 299C260.933 296.564 256.583 297.183 252 296.96C247.43 296.737 242.538 295.849 238 295.248C233.011 294.588 228.823 291.289 223.961 290.34C218.428 289.26 212.59 290.416 207 289.896C199.305 289.18 191.838 287.162 184 287z"/>
<path style="fill:#ec2332; stroke:none;" d="M186 288C187.248 288.685 187.548 288.749 189 289C187.752 288.315 187.452 288.251 186 288z"/>
<path style="fill:#ea7b6f; stroke:none;" d="M365 288L366 289L365 288z"/>
<path style="fill:#ec2332; stroke:none;" d="M192 289C193.248 289.685 193.548 289.749 195 290C193.752 289.315 193.452 289.251 192 289z"/>
<path style="fill:#ea7b6f; stroke:none;" d="M368 290C368.545 291.635 368.365 291.455 370 292C369.455 290.365 369.635 290.545 368 290z"/>
<path style="fill:#ec2332; stroke:none;" d="M200 291C201.769 291.779 203.036 291.912 205 292C203.231 291.221 201.964 291.088 200 291z"/>
<path style="fill:#82854c; stroke:none;" d="M200 293C206.833 296.284 217.457 296.995 225 297C216.465 293.06 209.212 292.273 200 293z"/>
<path style="fill:#ea7b6f; stroke:none;" d="M372 293L373 295L370 294C371.474 298.587 375.463 301.298 378.985 304.424C384.548 309.362 388.979 315.032 396 318C394.748 315.977 393.598 314.278 393 312L392 311C386.923 309.562 383.2 303.62 381 299C379.446 299.777 379.85 299.275 381 301C376.672 299.056 375.074 296.268 372 293z"/>
<path style="fill:#881627; stroke:none;" d="M371.667 294.333C371.222 294.778 372.278 294.722 372.333 294.667C372.778 294.222 371.722 294.278 371.667 294.333z"/>
<path style="fill:#ec2332; stroke:none;" d="M373 295C375.143 298.327 377.215 299.852 381 301C378.701 298.029 376.505 296.359 373 295z"/>
<path style="fill:#ea7b6f; stroke:none;" d="M376 296L377 297L376 296z"/>
<path style="fill:#881627; stroke:none;" d="M381 301C382.836 303.447 384.237 304.701 387 306C385.164 303.553 383.763 302.299 381 301z"/>
<path style="fill:#ea7b6f; stroke:none;" d="M385 303C386.103 304.457 386.543 304.897 388 306C386.897 304.543 386.457 304.103 385 303z"/>
<path style="fill:#ec2332; stroke:none;" d="M386 306C387.299 308.763 388.553 310.164 391 312C389.826 309.034 388.796 307.535 386 306z"/>
<path style="fill:#82854c; stroke:none;" d="M293 308C297.951 310.379 303.615 310 309 310C304.049 307.621 298.385 308 293 308z"/>
<path style="fill:#ea7b6f; stroke:none;" d="M389 308L390 309L389 308z"/>
<path style="fill:#881627; stroke:none;" d="M391 312L392 313L391 312z"/>
<path style="fill:#ec2332; stroke:none;" d="M364.333 321.667C364.278 321.722 364.222 322.778 364.667 322.333C364.722 322.278 364.778 321.222 364.333 321.667z"/>
<path style="fill:#ea7b6f; stroke:none;" d="M401 321C401.545 322.635 401.365 322.455 403 323C402.455 321.365 402.635 321.545 401 321M403 324L404 325L403 324z"/>
<path style="fill:#ec2332; stroke:none;" d="M351 325C354.292 330.47 359.938 332.108 366 333C362.729 327.668 356.806 326.201 351 325z"/>
<path style="fill:#ea7b6f; stroke:none;" d="M404 326L405 327L404 326M406 329C407.235 332.971 408.896 336.217 412 339C410.276 335.377 408.855 331.847 406 329M413 340C414.737 343.071 414.733 347.806 417 350C414.582 350.722 412.528 350.948 410 351C413.838 352.595 420.297 351.703 418.379 345.989C417.449 343.22 415.239 341.63 413 340M407 350L408 351L407 350z"/>
</svg>
